<?xml version="1.0" encoding="UTF-8" standalone="no"?>
<!-- Created with Inkscape (http://www.inkscape.org/) -->

<svg
   width="512"
   height="512"
   viewBox="0 0 512 512"
   version="1.1"
   id="svg1"
   inkscape:version="1.3-beta (cedbd6c, 2023-05-28)"
   sodipodi:docname="goblocks_icon.svg"
   xmlns:inkscape="http://www.inkscape.org/namespaces/inkscape"
   xmlns:sodipodi="http://sodipodi.sourceforge.net/DTD/sodipodi-0.dtd"
   xmlns="http://www.w3.org/2000/svg"
   xmlns:svg="http://www.w3.org/2000/svg">
  <sodipodi:namedview
     id="namedview1"
     pagecolor="#ffffff"
     bordercolor="#000000"
     borderopacity="0.25"
     inkscape:showpageshadow="2"
     inkscape:pageopacity="0.0"
     inkscape:pagecheckerboard="0"
     inkscape:deskcolor="#d1d1d1"
     inkscape:document-units="px"
     inkscape:zoom="1.7634324"
     inkscape:cx="84.49431"
     inkscape:cy="255.75123"
     inkscape:window-width="2560"
     inkscape:window-height="1381"
     inkscape:window-x="0"
     inkscape:window-y="31"
     inkscape:window-maximized="1"
     inkscape:current-layer="layer1" />
  <defs
     id="defs1" />
  <g
     inkscape:label="Layer 1"
     inkscape:groupmode="layer"
     id="layer1">
    <g
       id="g2"
       transform="matrix(1.1977225,0,0,1.1977225,-144.2034,5.0616473)">
      <g
         id="svgg"
         transform="translate(83.456619,-175.73817)">
        <path
           id="path0"
           d="m 279.18,203.674 c -7.337,3.508 -11.678,10.638 -11.918,19.576 -0.066,2.475 -0.152,4.648 -0.191,4.83 -0.039,0.181 -2.265,1.687 -4.946,3.346 -2.681,1.658 -6.069,3.908 -7.528,4.998 -2.05,1.532 -3.414,2.115 -6,2.565 -19.087,3.319 -32.388,24.383 -28.187,44.64 l 1.012,4.88 -4.409,9.12 c -6.499,13.444 -11.699,27.055 -16.856,44.121 -1.076,3.56 -0.677,3.323 -16.695,9.895 -15.264,6.261 -14.936,6.164 -18.369,5.455 -9.961,-2.058 -20.473,0.942 -24.495,6.99 -2.918,4.386 -1.922,3.969 -32.598,13.674 -8.388,2.654 -18.963,6.02 -23.5,7.482 -4.537,1.461 -11.287,3.599 -15,4.751 -10.58,3.283 -10.25,2.551 -10.995,24.4 -3.037,89.004 -3.066,91.417 -1.13,95.117 2.243,4.288 5.511,6.099 75.061,41.594 l 15.686,8.006 4.564,-0.242 c 4.043,-0.214 5.306,-0.54 11.064,-2.859 3.575,-1.439 12.238,-4.826 19.25,-7.526 7.012,-2.7 15.338,-5.922 18.5,-7.162 6.11,-2.394 7.47,-2.383 5.674,0.047 -4.29,5.803 -4.424,6.086 -4.424,9.333 0,7.7 7.538,11.04 16.792,7.441 12.006,-4.669 23.373,-16.177 31.157,-31.544 1.737,-3.43 1.904,-3.465 6.856,-1.436 20.242,8.297 50.95,12.523 71.635,9.858 4.547,-0.586 4.113,-0.958 7.999,6.862 7.517,15.128 12.108,21.222 18.272,24.254 7.371,3.625 15.536,1.278 18.262,-5.249 1.406,-3.365 0.686,-10.946 -2.736,-28.791 -1.396,-7.285 -1.593,-6.721 3.138,-9.015 11.184,-5.425 22.591,-16.9 28.783,-28.953 8.509,-16.567 9.734,-31.683 5.336,-65.882 -3.051,-23.728 -1.239,-35.729 10.418,-69 7.037,-20.085 8.093,-24.203 9.357,-36.471 0.732,-7.107 0.357,-23.218 -0.669,-28.734 -0.806,-4.332 -0.864,-4.233 4.134,-7.029 8.579,-4.799 14.553,-15.392 13.891,-24.634 -1.116,-15.598 -18.564,-20.861 -34.307,-10.348 -3.812,2.546 -4.293,2.497 -8.361,-0.837 -26.225,-21.496 -56.379,-32.776 -89.904,-33.63 -10.328,-0.263 -12.514,-0.445 -12.845,-1.067 -0.219,-0.412 -0.954,-2.027 -1.633,-3.588 -3.559,-8.174 -12.422,-12.451 -19.145,-9.238 m 10.015,6.227 c 2.362,1.617 4.246,4.349 4.63,6.712 l 0.284,1.753 -3.679,0.888 c -2.024,0.488 -6.567,1.886 -10.095,3.105 -8.337,2.882 -9.378,2.211 -6.859,-4.417 3.21,-8.449 10.029,-11.936 15.719,-8.041 M 327,223.993 c 22.672,2.232 57.396,18.009 74.139,33.685 l 1.389,1.3 -1.264,2.494 c -3.228,6.371 0.641,10.842 4.242,4.903 7.268,-11.99 23.299,-18.066 30.5,-11.56 9.934,8.975 1.646,26.183 -14.569,30.253 -5.584,1.401 -5.937,1.62 -5.937,3.682 0,1.997 1.013,2.75 3.7,2.75 3.149,0 4.054,5.589 3.676,22.702 -0.34,15.38 -1.808,21.796 -10.65,46.548 -11.941,33.424 -13.024,43.276 -8.523,77.5 4.633,35.229 -1.9,56.583 -22.335,72.999 -8.779,7.052 -12.098,8.389 -13.774,5.548 -1.266,-2.146 -3.154,-2.441 -4.298,-0.672 -0.648,1.002 -0.593,1.78 0.501,7.125 1.424,6.951 4.071,23.618 4.707,29.636 0.653,6.184 -0.698,8.992 -2.761,5.739 -3.318,-5.231 -5.615,-5.3 -2.975,-0.09 1.506,2.972 1.318,3.465 -1.317,3.465 -6.49,0 -14.073,-10.42 -22.743,-31.25 -3.395,-8.159 -4.448,-9.75 -6.452,-9.75 -2.116,0 -2.468,1.04 -2.108,6.229 0.335,4.842 -36.713,2.463 -58.089,-3.729 -13.073,-3.787 -16.988,-5.818 -16.029,-8.314 0.303,-0.79 0.748,-4.811 0.989,-8.936 0.241,-4.125 0.677,-10.2 0.968,-13.5 1.315,-14.88 2.047,-22.238 2.511,-25.25 0.275,-1.788 0.834,-6.722 1.241,-10.965 0.887,-9.242 0.161,-8.398 7.776,-9.045 16.108,-1.37 47.832,-11.699 60.324,-19.64 12.209,-7.763 14.828,-10.175 13.345,-12.292 -1.249,-1.784 -3.069,-1.311 -7.684,1.996 -11.795,8.453 -30.441,15.803 -57,22.472 -16.575,4.161 -47.188,-0.435 -38.382,-5.763 l 1.632,-0.987 -1.75,-0.148 c -4.259,-0.36 -4.953,-1.336 -3.267,-4.596 2.223,-4.298 6.712,-6.447 16.267,-7.789 10.398,-1.46 23.138,-5.348 34.75,-10.604 3.3,-1.493 8.363,-3.741 11.25,-4.994 11.785,-5.113 23,-12.145 23,-14.421 0,-3.215 -1.937,-2.853 -9.75,1.823 -13.495,8.077 -45.757,21.244 -48.259,19.697 -0.27,-0.167 -0.491,-2.064 -0.491,-4.216 0,-9.341 -2.361,-11.024 -27.75,-19.787 -29.111,-10.048 -35.539,-12.35 -36.151,-12.945 -1.032,-1.004 2.125,-18.459 4.911,-27.158 0.82,-2.557 1.49,-4.972 1.49,-5.365 0,-4.775 15.899,-44.416 18.445,-45.989 0.263,-0.163 1.309,0.718 2.325,1.958 3.74,4.564 10.482,8.01 16.929,8.654 l 3.551,0.354 0.283,3.75 c 0.335,4.434 1.917,7.912 4.725,10.382 1.448,1.274 1.786,1.878 1.54,2.75 -3.136,11.136 0.247,21.631 7.618,23.634 1.559,0.424 4.469,1.231 6.467,1.795 7.975,2.249 13.811,-1.325 17.816,-10.913 1.01,-2.419 2.02,-4.735 2.244,-5.148 0.238,-0.439 1.736,-0.974 3.607,-1.289 8.247,-1.389 11.806,-4.791 13.44,-12.844 0.675,-3.33 -0.016,-9.319 -1.302,-11.282 -1.755,-2.679 -4.526,-5.225 -7.487,-6.881 -1.734,-0.969 -3.255,-2.143 -3.38,-2.608 -0.126,-0.465 -0.369,-1.478 -0.541,-2.251 -0.693,-3.102 -4.336,-5.953 -10.963,-8.577 -2.219,-0.879 -2.223,-1.085 -0.131,-6.049 7.728,-18.333 1.09,-37.378 -14.917,-42.797 -3.259,-1.103 -3.318,-1.571 -0.428,-3.417 9.411,-6.012 23.831,-10.936 37.159,-12.689 2.628,-0.346 18.025,0.088 24,0.677 m -62,20.43 c 11.945,4.625 17.356,18.895 12.552,33.107 -2.408,7.125 -4.286,10.134 -7.549,12.092 -1.492,0.895 -3.479,2.64 -4.416,3.878 -1.443,1.906 -2.212,2.409 -5.021,3.287 -3.988,1.248 -5.675,2.103 -8.316,4.215 -6.058,4.844 -19.567,-0.68 -24.467,-10.005 -8.335,-15.861 -2.336,-35.326 13.767,-44.669 5.852,-3.396 17.214,-4.319 23.45,-1.905 m 71.157,10.047 c -42.63,6.79 -47.251,64.967 -5.861,73.801 36.077,7.7 63.603,-32.701 41.47,-60.868 -7.48,-9.52 -22.587,-15.007 -35.609,-12.933 m 15.045,6.018 c 25.811,6.601 31.511,39.78 9.659,56.227 -19.739,14.857 -48.939,5.889 -53.612,-16.465 -5.126,-24.521 18.826,-46.189 43.953,-39.762 m 72.759,4.182 c -3.159,1.69 -11.523,7.579 -13.966,9.835 -2.892,2.669 -2.23,5.699 1.053,4.821 2.01,-0.538 17.956,-12.507 17.944,-13.469 -0.027,-2.144 -2.257,-2.67 -5.031,-1.187 m -188.732,3.262 c -4.747,2.894 -4.79,10.216 -0.077,13.09 5.986,3.65 12.696,-3.673 9.513,-10.38 -1.606,-3.386 -6.177,-4.698 -9.436,-2.71 m 86.86,19.909 c -5.308,2.616 -5.586,11.041 -0.469,14.162 4.693,2.861 10.916,-0.362 11.685,-6.051 0.875,-6.481 -5.366,-10.994 -11.216,-8.111 m -56.159,17.08 c 4.826,5 12.645,6.1 20.609,2.9 3.845,-1.544 4.472,-1.593 6.611,-0.514 8.786,4.432 8.118,17.159 -1.003,19.115 -2.901,0.622 -3.046,0.591 -15.836,-3.396 -5.467,-1.704 -11.992,-3.54 -14.5,-4.079 -8.392,-1.805 -10.62,-5.592 -6.98,-11.861 3.152,-5.427 7.189,-6.215 11.099,-2.165 m -0.097,20.384 c 3.921,1.126 3.922,1.131 1.867,8.75 -2.107,7.811 -2.69,8.945 -4.6,8.945 -4.54,0 -6.899,-7.543 -4.662,-14.909 1.37,-4.511 1.377,-4.514 7.395,-2.786 m 12.465,3.909 c 5.13,1.862 5.179,1.966 3.252,6.89 -3.072,7.851 -8.231,11.649 -11.636,8.569 -1.348,-1.221 -0.167,-7.931 2.824,-16.048 0.341,-0.925 1.824,-0.768 5.56,0.589 M 196.5,353.897 c 0,0.218 -0.675,3.715 -1.5,7.771 -0.825,4.055 -1.5,7.996 -1.5,8.757 0,2.633 -0.922,3.238 -3.507,2.302 -21.097,-7.638 -21.847,-7.808 -24.381,-5.519 -5.879,5.312 -16.109,7.849 -19.994,4.959 -5.816,-4.326 7.539,-11.85 16.816,-9.473 5.519,1.414 6.292,1.216 26.066,-6.668 6.097,-2.43 8,-2.937 8,-2.129 m -7.029,24.364 c 10.01,3.443 21.031,7.249 24.49,8.457 3.459,1.208 11.801,4.123 18.539,6.477 16.541,5.78 20.75,7.46 20.75,8.284 0,0.457 -4.041,2.013 -12,4.621 -6.6,2.162 -24.262,7.961 -39.25,12.887 -42.869,14.09 -41.404,13.647 -44.25,13.388 -1.649,-0.15 -6.244,-1.806 -13.5,-4.865 C 129.364,421.236 101.506,409.95 86.167,403.981 71.182,398.149 69,397.208 69,396.575 c 0,-0.49 12.026,-4.481 44.5,-14.766 10.037,-3.179 19.782,-6.287 21.654,-6.906 3.228,-1.068 3.473,-1.083 4.75,-0.289 5.16,3.209 4.877,3.137 12.346,3.119 7.791,-0.02 9.91,-0.586 14.966,-4.002 3.313,-2.238 1.516,-2.604 22.255,4.53 M 80.729,407.727 c 20.105,7.93 52.466,21.025 61.771,24.997 4.262,1.819 8.912,3.649 10.333,4.065 4.028,1.181 3.905,-1.026 1.694,30.273 -1.095,15.503 -2.345,33.363 -2.778,39.688 -0.434,6.325 -0.998,14.087 -1.255,17.25 -0.257,3.163 -0.712,10.25 -1.012,15.75 -0.632,11.609 -0.727,12.25 -1.821,12.25 -0.833,0 -40.194,-19.803 -62.744,-31.566 C 78.134,516.895 72.434,514 72.252,514 c -1.374,0 -8.961,-4.969 -9.901,-6.484 -1.302,-2.098 -1.312,-5.652 -0.112,-42.516 0.398,-12.238 0.969,-30.913 1.27,-41.5 0.599,-21.123 0.632,-21.5 1.854,-21.5 0.464,0 7.379,2.577 15.366,5.727 m 176.771,2.191 c 0,3.415 -0.885,4.392 -4.362,4.815 -13.569,1.653 -21.346,6.581 -22.607,14.327 -1.57,9.646 4.881,15.569 19.369,17.785 2.943,0.449 5.518,1.062 5.723,1.361 0.499,0.728 0.109,5.803 -2.634,34.294 -0.543,5.637 -1.409,14.876 -1.926,20.53 -1.212,13.267 -1.489,13.77 -9.322,16.936 -6.276,2.536 -39.993,15.337 -44.241,16.797 -2.613,0.898 -5.988,2.189 -7.5,2.87 -1.512,0.68 -6.463,2.634 -11,4.341 -4.537,1.707 -11.7,4.462 -15.918,6.122 -5.641,2.221 -7.815,2.871 -8.225,2.461 -0.65,-0.65 -0.08,-12.606 1.863,-39.057 0.677,-9.212 1.586,-22.038 2.021,-28.5 0.434,-6.462 1.116,-16.25 1.516,-21.75 0.4,-5.5 0.945,-13.162 1.212,-17.026 0.603,-8.72 0.514,-8.506 3.951,-9.489 5.487,-1.569 42.123,-13.396 66.555,-21.485 13.598,-4.502 24.905,-8.074 25.125,-7.938 0.22,0.136 0.4,1.309 0.4,2.606 M 243,527.187 c 0,4.245 -15.174,19.874 -23.264,23.962 -8.048,4.067 -14.519,3.163 -7.7,-1.076 2.99,-1.858 3.266,-3.409 0.57,-3.196 -1.056,0.083 -1.606,-0.098 -1.606,-0.529 0,-1.016 10.729,-11.346 11.8,-11.362 1.271,-0.018 7.6,-2.74 8.712,-3.747 0.738,-0.668 9.908,-4.539 11.113,-4.692 0.206,-0.026 0.375,0.262 0.375,0.64"
           stroke="none"
           fill="#405c5e"
           fill-rule="evenodd" />
        <path
           id="path2"
           d="m 258.392,303.461 c -8.37,5.308 -6.599,13.331 3.419,15.486 2.508,0.539 9.033,2.375 14.5,4.079 12.79,3.987 12.935,4.018 15.836,3.396 9.121,-1.956 9.789,-14.683 1.003,-19.115 -2.139,-1.079 -2.766,-1.03 -6.611,0.514 -7.964,3.2 -15.783,2.1 -20.609,-2.9 -3.285,-3.402 -4.197,-3.579 -7.538,-1.46 m -91.176,70.27 c -5.056,3.416 -7.175,3.982 -14.966,4.002 -7.469,0.018 -7.186,0.09 -12.346,-3.119 -1.277,-0.794 -1.522,-0.779 -4.75,0.289 -1.872,0.619 -11.617,3.727 -21.654,6.906 -32.474,10.285 -44.5,14.276 -44.5,14.766 0,0.633 2.182,1.574 17.167,7.406 15.339,5.969 43.197,17.255 58.083,23.529 7.256,3.059 11.851,4.715 13.5,4.865 2.846,0.259 1.381,0.702 44.25,-13.388 14.988,-4.926 32.65,-10.725 39.25,-12.887 7.959,-2.608 12,-4.164 12,-4.621 0,-0.824 -4.209,-2.504 -20.75,-8.284 -6.738,-2.354 -15.08,-5.269 -18.539,-6.477 -21.188,-7.401 -42.8,-14.717 -43.451,-14.709 -0.418,0.006 -1.9,0.78 -3.294,1.722 M 64.287,403.125 c -0.127,0.619 -0.478,9.788 -0.778,20.375 -0.301,10.587 -0.872,29.262 -1.27,41.5 -1.2,36.864 -1.19,40.418 0.112,42.516 0.94,1.515 8.527,6.484 9.901,6.484 0.182,0 5.882,2.895 12.665,6.434 22.55,11.763 61.911,31.566 62.744,31.566 1.094,0 1.189,-0.641 1.821,-12.25 0.3,-5.5 0.755,-12.587 1.012,-15.75 0.257,-3.163 0.821,-10.925 1.255,-17.25 0.433,-6.325 1.683,-24.185 2.778,-39.688 2.211,-31.299 2.334,-29.092 -1.694,-30.273 -1.421,-0.416 -6.071,-2.246 -10.333,-4.065 C 123.645,424.676 66.713,402 65.363,402 c -0.473,0 -0.946,0.494 -1.076,1.125 m 167.688,12.125 c -24.432,8.089 -61.068,19.916 -66.555,21.485 -3.437,0.983 -3.348,0.769 -3.951,9.489 -0.267,3.864 -0.812,11.526 -1.212,17.026 -0.4,5.5 -1.082,15.288 -1.516,21.75 -0.435,6.462 -1.344,19.288 -2.021,28.5 -1.943,26.451 -2.513,38.407 -1.863,39.057 0.41,0.41 2.584,-0.24 8.225,-2.461 4.218,-1.66 11.381,-4.415 15.918,-6.122 4.537,-1.707 9.488,-3.661 11,-4.341 1.512,-0.681 4.887,-1.972 7.5,-2.87 4.248,-1.46 37.965,-14.261 44.241,-16.797 7.833,-3.166 8.11,-3.669 9.322,-16.936 0.517,-5.654 1.383,-14.893 1.926,-20.53 2.743,-28.491 3.133,-33.566 2.634,-34.294 -0.205,-0.299 -2.78,-0.912 -5.723,-1.361 -14.488,-2.216 -20.939,-8.139 -19.369,-17.785 1.261,-7.746 9.038,-12.674 22.607,-14.327 2.109,-0.257 3.087,-0.635 3.625,-1.404 0.774,-1.104 1.025,-5.592 0.337,-6.017 -0.22,-0.136 -11.527,3.436 -25.125,7.938"
           stroke="none"
           fill="#f1bb4b"
           fill-rule="evenodd" />
        <path
           id="path3"
           d="m 281.573,202.045 c -8.338,1.61 -15.073,11.327 -15.073,21.748 v 4.112 l -2.375,1.379 c -1.306,0.758 -4.811,3.029 -7.788,5.047 -3.149,2.135 -5.935,3.669 -6.662,3.669 -1.778,0 -8.517,2.33 -11.175,3.864 -14.955,8.63 -22.438,25.599 -18.751,42.524 l 0.901,4.138 -4.543,9.362 c -6.297,12.973 -12.927,30.317 -16.386,42.862 -1.147,4.162 -2.271,4.774 -24.905,13.571 l -6.934,2.695 -3.67,-0.758 c -10.462,-2.161 -20.314,1.192 -24.992,8.506 l -1.647,2.573 -7.661,2.547 c -7.295,2.425 -47.311,15.227 -61.208,19.582 -7.007,2.196 -8.065,2.897 -9.497,6.291 -1.144,2.711 -1.174,3.408 -3.752,88.993 -0.84,27.904 -1.221,27.031 15.545,35.651 20.55,10.565 43.805,22.559 58.25,30.044 22.268,11.538 21.739,11.448 35.5,6.067 4.4,-1.72 13.4,-5.216 20,-7.767 6.6,-2.552 14.08,-5.49 16.622,-6.529 5.286,-2.161 5.871,-2.048 3.687,0.71 -4.319,5.453 -4.63,9.68 -1.015,13.798 9.872,11.244 34.222,-3.864 46.9,-29.099 1.856,-3.693 1.617,-3.658 7.878,-1.157 20.063,8.015 43.341,11.066 71.897,9.424 l 2.468,-0.142 4.297,8.5 c 9.26,18.319 15.508,24.487 24.766,24.455 10.34,-0.036 14.718,-6.814 12.57,-19.455 -1.505,-8.856 -2.87,-16.416 -3.544,-19.633 -0.856,-4.08 -0.842,-4.109 2.545,-5.579 6.504,-2.822 15.75,-10.218 21.568,-17.251 15.497,-18.736 19.203,-39.99 13.629,-78.151 -3.365,-23.036 -1.485,-35.235 10.895,-70.674 9.419,-26.967 11.633,-45.767 7.799,-66.235 -0.27,-1.442 -0.131,-1.6 2.627,-2.997 9.948,-5.037 17.304,-18.072 15.649,-27.73 -2.721,-15.879 -19.997,-20.174 -36.228,-9.007 -2.763,1.901 -2.416,2.008 -7.893,-2.419 -25.717,-20.787 -57.615,-32.47 -89.543,-32.795 l -11.426,-0.116 -1.87,-3.957 c -3.706,-7.84 -10.517,-12 -17.455,-10.661 m 8.707,2.093 c 3.231,1.638 6.481,5.182 8.045,8.774 0.679,1.561 1.414,3.176 1.633,3.588 0.331,0.622 2.517,0.804 12.845,1.067 33.525,0.854 63.679,12.134 89.904,33.63 4.068,3.334 4.549,3.383 8.361,0.837 15.743,-10.513 33.191,-5.25 34.307,10.348 0.662,9.242 -5.312,19.835 -13.891,24.634 -4.998,2.796 -4.94,2.697 -4.134,7.029 1.026,5.516 1.401,21.627 0.669,28.734 -1.264,12.268 -2.32,16.386 -9.357,36.471 -11.657,33.271 -13.469,45.272 -10.418,69 4.398,34.199 3.173,49.315 -5.336,65.882 -6.192,12.053 -17.599,23.528 -28.783,28.953 -4.731,2.294 -4.534,1.73 -3.138,9.015 3.422,17.845 4.142,25.426 2.736,28.791 -2.726,6.527 -10.891,8.874 -18.262,5.249 -6.164,-3.032 -10.755,-9.126 -18.272,-24.254 -3.886,-7.82 -3.452,-7.448 -7.999,-6.862 -20.685,2.665 -51.393,-1.561 -71.635,-9.858 -4.952,-2.029 -5.119,-1.994 -6.856,1.436 -7.784,15.367 -19.151,26.875 -31.157,31.544 -9.254,3.599 -16.792,0.259 -16.792,-7.441 0,-3.247 0.134,-3.53 4.424,-9.333 1.796,-2.43 0.436,-2.441 -5.674,-0.047 -3.162,1.24 -11.488,4.462 -18.5,7.162 -7.012,2.7 -15.675,6.087 -19.25,7.526 -5.758,2.319 -7.021,2.645 -11.064,2.859 l -4.564,0.242 -15.686,-8.006 c -69.55,-35.495 -72.818,-37.306 -75.061,-41.594 -1.936,-3.7 -1.907,-6.113 1.13,-95.117 0.745,-21.849 0.415,-21.117 10.995,-24.4 3.713,-1.152 10.463,-3.29 15,-4.751 4.537,-1.462 15.112,-4.828 23.5,-7.482 30.676,-9.705 29.68,-9.288 32.598,-13.674 4.022,-6.048 14.534,-9.048 24.495,-6.99 3.433,0.709 3.105,0.806 18.369,-5.455 16.018,-6.572 15.619,-6.335 16.695,-9.895 5.157,-17.066 10.357,-30.677 16.856,-44.121 l 4.409,-9.12 -1.012,-4.88 c -4.201,-20.257 9.1,-41.321 28.187,-44.64 2.586,-0.45 3.95,-1.033 6,-2.565 1.459,-1.09 4.847,-3.34 7.528,-4.998 2.681,-1.659 4.907,-3.165 4.946,-3.346 0.039,-0.182 0.125,-2.355 0.191,-4.83 0.389,-14.501 12.413,-24.485 23.018,-19.112 m -7.963,4.362 c -4.929,1.53 -9.817,8.387 -9.817,13.771 0,2.553 0.682,2.56 7.835,0.088 3.528,-1.219 8.071,-2.617 10.095,-3.105 l 3.679,-0.888 -0.284,-1.753 c -0.836,-5.148 -7.019,-9.507 -11.508,-8.113 M 303,223.316 c -13.328,1.753 -27.748,6.677 -37.159,12.689 -2.89,1.846 -2.831,2.314 0.428,3.417 16.007,5.419 22.645,24.464 14.917,42.797 -2.092,4.964 -2.088,5.17 0.131,6.049 6.627,2.624 10.27,5.475 10.963,8.577 0.172,0.773 0.415,1.786 0.541,2.251 0.125,0.465 1.646,1.639 3.38,2.608 7.215,4.035 10.343,10.499 8.789,18.163 -1.634,8.053 -5.193,11.455 -13.44,12.844 -1.871,0.315 -3.369,0.85 -3.607,1.289 -0.224,0.413 -1.234,2.729 -2.244,5.148 -4.005,9.588 -9.841,13.162 -17.816,10.913 -1.998,-0.564 -4.908,-1.371 -6.467,-1.795 -7.371,-2.003 -10.754,-12.498 -7.618,-23.634 0.246,-0.872 -0.092,-1.476 -1.54,-2.75 -2.808,-2.47 -4.39,-5.948 -4.725,-10.382 l -0.283,-3.75 -3.551,-0.354 c -6.447,-0.644 -13.189,-4.09 -16.929,-8.654 -1.016,-1.24 -2.062,-2.121 -2.325,-1.958 -2.546,1.573 -18.445,41.214 -18.445,45.989 0,0.393 -0.67,2.808 -1.49,5.365 -2.786,8.699 -5.943,26.154 -4.911,27.158 0.612,0.595 7.04,2.897 36.151,12.945 25.389,8.763 27.75,10.446 27.75,19.787 0,2.152 0.221,4.049 0.491,4.216 2.502,1.547 34.764,-11.62 48.259,-19.697 7.813,-4.676 9.75,-5.038 9.75,-1.823 0,2.276 -11.215,9.308 -23,14.421 -2.887,1.253 -7.95,3.501 -11.25,4.994 -11.612,5.256 -24.352,9.144 -34.75,10.604 -9.555,1.342 -14.044,3.491 -16.267,7.789 -1.686,3.26 -0.992,4.236 3.267,4.596 l 1.75,0.148 -1.632,0.987 c -8.806,5.328 21.807,9.924 38.382,5.763 26.559,-6.669 45.205,-14.019 57,-22.472 4.615,-3.307 6.435,-3.78 7.684,-1.996 1.483,2.117 -1.136,4.529 -13.345,12.292 -12.492,7.941 -44.216,18.27 -60.324,19.64 -7.615,0.647 -6.889,-0.197 -7.776,9.045 -0.407,4.243 -0.966,9.177 -1.241,10.965 -0.464,3.012 -1.196,10.37 -2.511,25.25 -0.291,3.3 -0.727,9.375 -0.968,13.5 -0.241,4.125 -0.686,8.146 -0.989,8.936 -0.752,1.957 -0.289,2.396 4.737,4.5 14.585,6.105 31.443,9.226 51.983,9.624 15.513,0.299 17.546,0.056 17.398,-2.081 -0.36,-5.189 -0.008,-6.229 2.108,-6.229 2.004,0 3.057,1.591 6.452,9.75 8.67,20.83 16.253,31.25 22.743,31.25 2.635,0 2.823,-0.493 1.317,-3.465 -2.64,-5.21 -0.343,-5.141 2.975,0.09 2.063,3.253 3.414,0.445 2.761,-5.739 -0.636,-6.018 -3.283,-22.685 -4.707,-29.636 -1.094,-5.345 -1.149,-6.123 -0.501,-7.125 1.144,-1.769 3.032,-1.474 4.298,0.672 1.676,2.841 4.995,1.504 13.774,-5.548 20.435,-16.416 26.968,-37.77 22.335,-72.999 -4.501,-34.224 -3.418,-44.076 8.523,-77.5 8.842,-24.752 10.31,-31.168 10.65,-46.548 0.378,-17.113 -0.527,-22.702 -3.676,-22.702 -2.687,0 -3.7,-0.753 -3.7,-2.75 0,-2.062 0.353,-2.281 5.937,-3.682 16.215,-4.07 24.503,-21.278 14.569,-30.253 -7.201,-6.506 -23.232,-0.43 -30.5,11.56 -3.601,5.939 -7.47,1.468 -4.242,-4.903 l 1.264,-2.494 -1.389,-1.3 C 384.396,242.002 349.672,226.225 327,223.993 c -5.975,-0.589 -21.372,-1.023 -24,-0.677 m -55.45,20.678 c -19.321,5.216 -29.28,28.899 -19.767,47.003 4.9,9.325 18.409,14.849 24.467,10.005 2.641,-2.112 4.328,-2.967 8.316,-4.215 2.809,-0.878 3.578,-1.381 5.021,-3.287 0.937,-1.238 2.924,-2.983 4.416,-3.878 7.124,-4.276 11.525,-21.23 8.064,-31.065 -4.374,-12.431 -16.674,-18.3 -30.517,-14.563 m 16.706,1 c 13.685,4.633 18.236,21.412 10.256,37.81 -2.077,4.267 -2.717,5.157 -4.111,5.721 -0.908,0.367 -3.001,2.046 -4.651,3.732 -2.533,2.587 -3.537,3.237 -6.451,4.175 -1.899,0.611 -4.748,2.02 -6.332,3.131 -9.544,6.695 -23.263,-1.127 -27.019,-15.406 -6.286,-23.893 16.03,-46.706 38.308,-39.163 m 88.236,10.286 c 22.847,5.379 33.877,30.967 22.599,52.424 -18.15,34.53 -71.984,25.377 -73.469,-12.492 -1.04,-26.518 24.085,-46.24 50.87,-39.932 m -17.242,4.759 c -22.003,3.717 -35.118,28.149 -25.426,47.366 10.219,20.262 42.293,22.349 56.931,3.704 19.412,-24.725 -0.112,-56.373 -31.505,-51.07 m 17.618,1.699 c 20.896,6.601 27.493,31.367 13.096,49.16 -15.547,19.215 -48.643,15.198 -56.834,-6.898 -9.38,-25.305 16.932,-50.73 43.738,-42.262 m 75.749,2.954 c 0.957,1.453 0.429,1.945 -11.617,10.815 -5.03,3.703 -6.661,4.45 -7.952,3.641 -2.536,-1.589 -0.592,-4.044 7.862,-9.927 8.021,-5.582 10.406,-6.505 11.707,-4.529 m -191.867,1.646 c -5.921,1.564 -7.742,10.31 -3.048,14.639 2.122,1.958 7.036,2.1 9.216,0.265 6.701,-5.639 1.976,-17.057 -6.168,-14.904 m 5.54,1.605 c 5.807,3.541 3.008,14.062 -3.739,14.055 -7.095,-0.007 -9.523,-10.285 -3.322,-14.066 1.953,-1.192 5.097,-1.187 7.061,0.011 m 78.63,19.789 c -6.932,4.71 -4.261,15.241 3.972,15.657 5.764,0.292 9.109,-2.864 9.107,-8.593 -0.002,-6.941 -7.389,-10.931 -13.079,-7.064 m 8.989,0.283 c 3.415,2.082 4.571,8.212 2.167,11.485 -4.795,6.528 -14.069,3.557 -14.074,-4.509 -0.004,-6.271 6.66,-10.175 11.907,-6.976 m -69.782,36.305 c -2.255,0.948 -3.189,11.171 -1.409,15.43 1.311,3.137 5.055,4.368 6.468,2.125 1.3,-2.064 4.38,-14.442 3.775,-15.172 -0.851,-1.026 -7.68,-2.868 -8.834,-2.383 m 3.923,1.223 c 5.28,1.686 5.045,0.749 2.499,9.957 -1.934,6.993 -2.989,8.121 -5.642,6.034 -2.249,-1.769 -3.173,-8.486 -1.819,-13.226 0.994,-3.482 1.622,-3.832 4.962,-2.765 m 8.688,3.082 c -4.399,11.938 -4.457,16.878 -0.199,16.873 4.536,-0.005 12.55,-11.623 9.868,-14.305 -1.84,-1.84 -9.215,-3.799 -9.669,-2.568 m 6.005,1.53 c 3.665,1.341 3.76,1.707 1.712,6.627 -2.97,7.133 -8.388,10.58 -10.482,6.667 -0.452,-0.844 2.248,-12.112 3.371,-14.074 0.366,-0.638 2.278,-0.362 5.399,0.78 M 188.5,356.026 c -19.774,7.884 -20.547,8.082 -26.066,6.668 -9.277,-2.377 -22.632,5.147 -16.816,9.473 3.885,2.89 14.115,0.353 19.994,-4.959 2.534,-2.289 3.284,-2.119 24.381,5.519 2.585,0.936 3.507,0.331 3.507,-2.302 0,-0.761 0.675,-4.702 1.5,-8.757 0.825,-4.056 1.5,-7.553 1.5,-7.771 0,-0.808 -1.903,-0.301 -8,2.129 m 48.824,172.49 c -2.71,1.057 -5.325,2.282 -5.812,2.723 -1.112,1.007 -7.441,3.729 -8.712,3.747 -1.071,0.016 -11.8,10.346 -11.8,11.362 0,0.431 0.55,0.612 1.606,0.529 2.696,-0.213 2.42,1.338 -0.57,3.196 -6.819,4.239 -0.348,5.143 7.7,1.076 8.09,-4.088 23.264,-19.717 23.264,-23.962 0,-0.895 0.063,-0.909 -5.676,1.329"
           stroke="none"
           fill="#7ec5d1"
           fill-rule="evenodd" />
      </g>
      <path
         style="fill:#faf3e3;fill-opacity:1;stroke-width:0.735294"
         d="m 322.35286,124.33064 c -4.31961,-1.96171 -8.22078,-6.18709 -10.86541,-11.76837 -2.11718,-4.46815 -2.29554,-5.44442 -2.29554,-12.56515 0,-7.35292 0.12652,-7.98549 2.65667,-13.28341 6.72071,-14.07259 21.17613,-21.23609 34.83828,-17.2644 5.33231,1.55015 10.57368,6.2729 12.91892,11.64063 4.07183,9.31953 0.14778,27.70543 -6.83402,32.02042 -1.33565,0.82548 -3.2174,2.34066 -4.18165,3.36706 -0.96426,1.0264 -5.17389,3.52867 -9.35475,5.56059 -8.51491,4.13831 -11.82779,4.58819 -16.8825,2.29263 z m 2.48964,-17.77089 c 5.75941,-2.00774 6.7054,-10.51401 1.66865,-15.00444 -2.28499,-2.03715 -6.89787,-1.83829 -9.28051,0.40009 -4.82189,4.52993 -3.4652,13.47217 2.25539,14.86581 2.42581,0.59097 2.99022,0.56342 5.35647,-0.26146 z"
         id="path766" />
      <path
         style="fill:#faf3e3;fill-opacity:1;stroke-width:0.735294"
         d="m 412.7331,145.69052 c -9.14719,-2.51933 -16.14042,-8.04189 -19.89036,-15.70744 -2.24519,-4.58955 -2.39853,-5.39763 -2.39853,-12.63908 0,-7.3198 0.1355,-8.01216 2.51829,-12.86765 6.70335,-13.65958 22.15462,-21.99974 36.38798,-19.6412 5.83634,0.96711 13.02994,4.1582 16.76347,7.43628 12.89126,11.31867 12.30241,33.09823 -1.23218,45.57398 -8.10154,7.46774 -21.57829,10.75642 -32.14867,7.84511 z m 1.40376,-20.62665 c 2.47308,-2.47308 2.5742,-2.77667 2.24543,-6.74117 -0.2912,-3.51153 -0.70351,-4.47243 -2.67483,-6.23382 -3.35997,-3.00212 -7.90757,-2.93076 -11.45018,0.17969 -6.52351,5.72772 -2.70333,15.3747 6.09134,15.38226 2.68076,0.002 3.61774,-0.41647 5.78824,-2.58696 z"
         id="path767" />
      <path
         style="fill:#faf3e3;fill-opacity:1;stroke-width:0.367647"
         d="m 344.99393,165.98864 c -2.70838,-1.47185 -3.76377,-9.38533 -1.91209,-14.3371 0.60314,-1.61292 0.82835,-1.85203 1.83735,-1.95079 1.45708,-0.1426 4.98438,0.8701 6.05765,1.73918 l 0.81883,0.66305 -0.80411,3.26692 c -1.86625,7.5822 -3.35814,11.19892 -4.60207,11.15662 -0.23808,-0.008 -0.86608,-0.25014 -1.39556,-0.53788 z"
         id="path769" />
      <path
         style="fill:#faf3e3;fill-opacity:1;stroke-width:0.367647"
         d="m 354.22868,168.37948 c -0.89636,-0.89636 -0.89651,-0.83497 0.0125,-5.14706 1.0092,-4.7876 2.46591,-9.44398 3.02043,-9.65479 0.59494,-0.22617 3.97439,0.64394 6.02633,1.55162 1.39865,0.61869 1.60255,0.8551 1.60255,1.85805 0,0.63205 -0.49982,2.33712 -1.11071,3.78906 -2.63578,6.26459 -7.23131,9.92286 -9.55105,7.60312 z"
         id="path770" />
    </g>
  </g>
</svg>
