<svg id="svg" xmlns="http://www.w3.org/2000/svg" xmlns:xlink="http://www.w3.org/1999/xlink" width="512" height="768" viewBox="0, 0, 512,768"><g id="svgg"><path id="path0" d="M279.180 203.674 C 271.843 207.182,267.502 214.312,267.262 223.250 C 267.196 225.725,267.110 227.898,267.071 228.080 C 267.032 228.261,264.806 229.767,262.125 231.426 C 259.444 233.084,256.056 235.334,254.597 236.424 C 252.547 237.956,251.183 238.539,248.597 238.989 C 229.510 242.308,216.209 263.372,220.410 283.629 L 221.422 288.509 217.013 297.629 C 210.514 311.073,205.314 324.684,200.157 341.750 C 199.081 345.310,199.480 345.073,183.462 351.645 C 168.198 357.906,168.526 357.809,165.093 357.100 C 155.132 355.042,144.620 358.042,140.598 364.090 C 137.680 368.476,138.676 368.059,108.000 377.764 C 99.612 380.418,89.037 383.784,84.500 385.246 C 79.963 386.707,73.213 388.845,69.500 389.997 C 58.920 393.280,59.250 392.548,58.505 414.397 C 55.468 503.401,55.439 505.814,57.375 509.514 C 59.618 513.802,62.886 515.613,132.436 551.108 L 148.122 559.114 152.686 558.872 C 156.729 558.658,157.992 558.332,163.750 556.013 C 167.325 554.574,175.988 551.187,183.000 548.487 C 190.012 545.787,198.338 542.565,201.500 541.325 C 207.610 538.931,208.970 538.942,207.174 541.372 C 202.884 547.175,202.750 547.458,202.750 550.705 C 202.750 558.405,210.288 561.745,219.542 558.146 C 231.548 553.477,242.915 541.969,250.699 526.602 C 252.436 523.172,252.603 523.137,257.555 525.166 C 277.797 533.463,308.505 537.689,329.190 535.024 C 333.737 534.438,333.303 534.066,337.189 541.886 C 344.706 557.014,349.297 563.108,355.461 566.140 C 362.832 569.765,370.997 567.418,373.723 560.891 C 375.129 557.526,374.409 549.945,370.987 532.100 C 369.591 524.815,369.394 525.379,374.125 523.085 C 385.309 517.660,396.716 506.185,402.908 494.132 C 411.417 477.565,412.642 462.449,408.244 428.250 C 405.193 404.522,407.005 392.521,418.662 359.250 C 425.699 339.165,426.755 335.047,428.019 322.779 C 428.751 315.672,428.376 299.561,427.350 294.045 C 426.544 289.713,426.486 289.812,431.484 287.016 C 440.063 282.217,446.037 271.624,445.375 262.382 C 444.259 246.784,426.811 241.521,411.068 252.034 C 407.256 254.580,406.775 254.531,402.707 251.197 C 376.482 229.701,346.328 218.421,312.803 217.567 C 302.475 217.304,300.289 217.122,299.958 216.500 C 299.739 216.088,299.004 214.473,298.325 212.912 C 294.766 204.738,285.903 200.461,279.180 203.674 M289.195 209.901 C 291.557 211.518,293.441 214.250,293.825 216.613 L 294.109 218.366 290.430 219.254 C 288.406 219.742,283.863 221.140,280.335 222.359 C 271.998 225.241,270.957 224.570,273.476 217.942 C 276.686 209.493,283.505 206.006,289.195 209.901 M327.000 223.993 C 349.672 226.225,384.396 242.002,401.139 257.678 L 402.528 258.978 401.264 261.472 C 398.036 267.843,401.905 272.314,405.506 266.375 C 412.774 254.385,428.805 248.309,436.006 254.815 C 445.940 263.790,437.652 280.998,421.437 285.068 C 415.853 286.469,415.500 286.688,415.500 288.750 C 415.500 290.747,416.513 291.500,419.200 291.500 C 422.349 291.500,423.254 297.089,422.876 314.202 C 422.536 329.582,421.068 335.998,412.226 360.750 C 400.285 394.174,399.202 404.026,403.703 438.250 C 408.336 473.479,401.803 494.833,381.368 511.249 C 372.589 518.301,369.270 519.638,367.594 516.797 C 366.328 514.651,364.440 514.356,363.296 516.125 C 362.648 517.127,362.703 517.905,363.797 523.250 C 365.221 530.201,367.868 546.868,368.504 552.886 C 369.157 559.070,367.806 561.878,365.743 558.625 C 362.425 553.394,360.128 553.325,362.768 558.535 C 364.274 561.507,364.086 562.000,361.451 562.000 C 354.961 562.000,347.378 551.580,338.708 530.750 C 335.313 522.591,334.260 521.000,332.256 521.000 C 330.140 521.000,329.788 522.040,330.148 527.229 C 330.483 532.071,293.435 529.692,272.059 523.500 C 258.986 519.713,255.071 517.682,256.030 515.186 C 256.333 514.396,256.778 510.375,257.019 506.250 C 257.260 502.125,257.696 496.050,257.987 492.750 C 259.302 477.870,260.034 470.512,260.498 467.500 C 260.773 465.712,261.332 460.778,261.739 456.535 C 262.626 447.293,261.900 448.137,269.515 447.490 C 285.623 446.120,317.347 435.791,329.839 427.850 C 342.048 420.087,344.667 417.675,343.184 415.558 C 341.935 413.774,340.115 414.247,335.500 417.554 C 323.705 426.007,305.059 433.357,278.500 440.026 C 261.925 444.187,231.312 439.591,240.118 434.263 L 241.750 433.276 240.000 433.128 C 235.741 432.768,235.047 431.792,236.733 428.532 C 238.956 424.234,243.445 422.085,253.000 420.743 C 263.398 419.283,276.138 415.395,287.750 410.139 C 291.050 408.646,296.113 406.398,299.000 405.145 C 310.785 400.032,322.000 393.000,322.000 390.724 C 322.000 387.509,320.063 387.871,312.250 392.547 C 298.755 400.624,266.493 413.791,263.991 412.244 C 263.721 412.077,263.500 410.180,263.500 408.028 C 263.500 398.687,261.139 397.004,235.750 388.241 C 206.639 378.193,200.211 375.891,199.599 375.296 C 198.567 374.292,201.724 356.837,204.510 348.138 C 205.330 345.581,206.000 343.166,206.000 342.773 C 206.000 337.998,221.899 298.357,224.445 296.784 C 224.708 296.621,225.754 297.502,226.770 298.742 C 230.510 303.306,237.252 306.752,243.699 307.396 L 247.250 307.750 247.533 311.500 C 247.868 315.934,249.450 319.412,252.258 321.882 C 253.706 323.156,254.044 323.760,253.798 324.632 C 250.662 335.768,254.045 346.263,261.416 348.266 C 262.975 348.690,265.885 349.497,267.883 350.061 C 275.858 352.310,281.694 348.736,285.699 339.148 C 286.709 336.729,287.719 334.413,287.943 334.000 C 288.181 333.561,289.679 333.026,291.550 332.711 C 299.797 331.322,303.356 327.920,304.990 319.867 C 305.665 316.537,304.974 310.548,303.688 308.585 C 301.933 305.906,299.162 303.360,296.201 301.704 C 294.467 300.735,292.946 299.561,292.821 299.096 C 292.695 298.631,292.452 297.618,292.280 296.845 C 291.587 293.743,287.944 290.892,281.317 288.268 C 279.098 287.389,279.094 287.183,281.186 282.219 C 288.914 263.886,282.276 244.841,266.269 239.422 C 263.010 238.319,262.951 237.851,265.841 236.005 C 275.252 229.993,289.672 225.069,303.000 223.316 C 305.628 222.970,321.025 223.404,327.000 223.993 M265.000 244.423 C 276.945 249.048,282.356 263.318,277.552 277.530 C 275.144 284.655,273.266 287.664,270.003 289.622 C 268.511 290.517,266.524 292.262,265.587 293.500 C 264.144 295.406,263.375 295.909,260.566 296.787 C 256.578 298.035,254.891 298.890,252.250 301.002 C 246.192 305.846,232.683 300.322,227.783 290.997 C 219.448 275.136,225.447 255.671,241.550 246.328 C 247.402 242.932,258.764 242.009,265.000 244.423 M336.157 254.470 C 293.527 261.260,288.906 319.437,330.296 328.271 C 366.373 335.971,393.899 295.570,371.766 267.403 C 364.286 257.883,349.179 252.396,336.157 254.470 M351.202 260.488 C 377.013 267.089,382.713 300.268,360.861 316.715 C 341.122 331.572,311.922 322.604,307.249 300.250 C 302.123 275.729,326.075 254.061,351.202 260.488 M423.961 264.670 C 420.802 266.360,412.438 272.249,409.995 274.505 C 407.103 277.174,407.765 280.204,411.048 279.326 C 413.058 278.788,429.004 266.819,428.992 265.857 C 428.965 263.713,426.735 263.187,423.961 264.670 M235.229 267.932 C 230.482 270.826,230.439 278.148,235.152 281.022 C 241.138 284.672,247.848 277.349,244.665 270.642 C 243.059 267.256,238.488 265.944,235.229 267.932 M322.089 287.841 C 316.781 290.457,316.503 298.882,321.620 302.003 C 326.313 304.864,332.536 301.641,333.305 295.952 C 334.180 289.471,327.939 284.958,322.089 287.841 M265.930 304.921 C 270.756 309.921,278.575 311.021,286.539 307.821 C 290.384 306.277,291.011 306.228,293.150 307.307 C 301.936 311.739,301.268 324.466,292.147 326.422 C 289.246 327.044,289.101 327.013,276.311 323.026 C 270.844 321.322,264.319 319.486,261.811 318.947 C 253.419 317.142,251.191 313.355,254.831 307.086 C 257.983 301.659,262.020 300.871,265.930 304.921 M265.833 325.305 C 269.754 326.431,269.755 326.436,267.700 334.055 C 265.593 341.866,265.010 343.000,263.100 343.000 C 258.560 343.000,256.201 335.457,258.438 328.091 C 259.808 323.580,259.815 323.577,265.833 325.305 M278.298 329.214 C 283.428 331.076,283.477 331.180,281.550 336.104 C 278.478 343.955,273.319 347.753,269.914 344.673 C 268.566 343.452,269.747 336.742,272.738 328.625 C 273.079 327.700,274.562 327.857,278.298 329.214 M196.500 353.897 C 196.500 354.115,195.825 357.612,195.000 361.668 C 194.175 365.723,193.500 369.664,193.500 370.425 C 193.500 373.058,192.578 373.663,189.993 372.727 C 168.896 365.089,168.146 364.919,165.612 367.208 C 159.733 372.520,149.503 375.057,145.618 372.167 C 139.802 367.841,153.157 360.317,162.434 362.694 C 167.953 364.108,168.726 363.910,188.500 356.026 C 194.597 353.596,196.500 353.089,196.500 353.897 M189.471 378.261 C 199.481 381.704,210.502 385.510,213.961 386.718 C 217.420 387.926,225.762 390.841,232.500 393.195 C 249.041 398.975,253.250 400.655,253.250 401.479 C 253.250 401.936,249.209 403.492,241.250 406.100 C 234.650 408.262,216.988 414.061,202.000 418.987 C 159.131 433.077,160.596 432.634,157.750 432.375 C 156.101 432.225,151.506 430.569,144.250 427.510 C 129.364 421.236,101.506 409.950,86.167 403.981 C 71.182 398.149,69.000 397.208,69.000 396.575 C 69.000 396.085,81.026 392.094,113.500 381.809 C 123.537 378.630,133.282 375.522,135.154 374.903 C 138.382 373.835,138.627 373.820,139.904 374.614 C 145.064 377.823,144.781 377.751,152.250 377.733 C 160.041 377.713,162.160 377.147,167.216 373.731 C 170.529 371.493,168.732 371.127,189.471 378.261 M80.729 407.727 C 100.834 415.657,133.195 428.752,142.500 432.724 C 146.762 434.543,151.412 436.373,152.833 436.789 C 156.861 437.970,156.738 435.763,154.527 467.062 C 153.432 482.565,152.182 500.425,151.749 506.750 C 151.315 513.075,150.751 520.837,150.494 524.000 C 150.237 527.163,149.782 534.250,149.482 539.750 C 148.850 551.359,148.755 552.000,147.661 552.000 C 146.828 552.000,107.467 532.197,84.917 520.434 C 78.134 516.895,72.434 514.000,72.252 514.000 C 70.878 514.000,63.291 509.031,62.351 507.516 C 61.049 505.418,61.039 501.864,62.239 465.000 C 62.637 452.762,63.208 434.087,63.509 423.500 C 64.108 402.377,64.141 402.000,65.363 402.000 C 65.827 402.000,72.742 404.577,80.729 407.727 M257.500 409.918 C 257.500 413.333,256.615 414.310,253.138 414.733 C 239.569 416.386,231.792 421.314,230.531 429.060 C 228.961 438.706,235.412 444.629,249.900 446.845 C 252.843 447.294,255.418 447.907,255.623 448.206 C 256.122 448.934,255.732 454.009,252.989 482.500 C 252.446 488.137,251.580 497.376,251.063 503.030 C 249.851 516.297,249.574 516.800,241.741 519.966 C 235.465 522.502,201.748 535.303,197.500 536.763 C 194.887 537.661,191.512 538.952,190.000 539.633 C 188.488 540.313,183.537 542.267,179.000 543.974 C 174.463 545.681,167.300 548.436,163.082 550.096 C 157.441 552.317,155.267 552.967,154.857 552.557 C 154.207 551.907,154.777 539.951,156.720 513.500 C 157.397 504.288,158.306 491.462,158.741 485.000 C 159.175 478.538,159.857 468.750,160.257 463.250 C 160.657 457.750,161.202 450.088,161.469 446.224 C 162.072 437.504,161.983 437.718,165.420 436.735 C 170.907 435.166,207.543 423.339,231.975 415.250 C 245.573 410.748,256.880 407.176,257.100 407.312 C 257.320 407.448,257.500 408.621,257.500 409.918 M243.000 527.187 C 243.000 531.432,227.826 547.061,219.736 551.149 C 211.688 555.216,205.217 554.312,212.036 550.073 C 215.026 548.215,215.302 546.664,212.606 546.877 C 211.550 546.960,211.000 546.779,211.000 546.348 C 211.000 545.332,221.729 535.002,222.800 534.986 C 224.071 534.968,230.400 532.246,231.512 531.239 C 232.250 530.571,241.420 526.700,242.625 526.547 C 242.831 526.521,243.000 526.809,243.000 527.187 " stroke="none" fill="#405c5e" fill-rule="evenodd"></path><path id="path1" d="M0.000 384.000 L 0.000 768.000 256.000 768.000 L 512.000 768.000 512.000 384.000 L 512.000 0.000 256.000 0.000 L 0.000 0.000 0.000 384.000 M289.859 203.025 C 293.411 204.549,296.927 208.261,299.028 212.706 L 300.898 216.663 312.324 216.779 C 344.252 217.104,376.150 228.787,401.867 249.574 C 407.344 254.001,406.997 253.894,409.760 251.993 C 425.991 240.826,443.267 245.121,445.988 261.000 C 447.643 270.658,440.287 283.693,430.339 288.730 C 427.581 290.127,427.442 290.285,427.712 291.727 C 431.546 312.195,429.332 330.995,419.913 357.962 C 407.533 393.401,405.653 405.600,409.018 428.636 C 414.592 466.797,410.886 488.051,395.389 506.787 C 389.571 513.820,380.325 521.216,373.821 524.038 C 370.434 525.508,370.420 525.537,371.276 529.617 C 371.950 532.834,373.315 540.394,374.820 549.250 C 376.968 561.891,372.590 568.669,362.250 568.705 C 352.992 568.737,346.744 562.569,337.484 544.250 L 333.187 535.750 330.719 535.892 C 302.163 537.534,278.885 534.483,258.822 526.468 C 252.561 523.967,252.800 523.932,250.944 527.625 C 238.266 552.860,213.916 567.968,204.044 556.724 C 200.429 552.606,200.740 548.379,205.059 542.926 C 207.243 540.168,206.658 540.055,201.372 542.216 C 198.830 543.255,191.350 546.193,184.750 548.745 C 178.150 551.296,169.150 554.792,164.750 556.512 C 150.989 561.893,151.518 561.983,129.250 550.445 C 114.805 542.960,91.550 530.966,71.000 520.401 C 54.234 511.781,54.615 512.654,55.455 484.750 C 58.033 399.165,58.063 398.468,59.207 395.757 C 60.639 392.363,61.697 391.662,68.704 389.466 C 82.601 385.111,122.617 372.309,129.912 369.884 L 137.573 367.337 139.220 364.764 C 143.898 357.450,153.750 354.097,164.212 356.258 L 167.882 357.016 174.816 354.321 C 197.450 345.524,198.574 344.912,199.721 340.750 C 203.180 328.205,209.810 310.861,216.107 297.888 L 220.650 288.526 219.749 284.388 C 216.062 267.463,223.545 250.494,238.500 241.864 C 241.158 240.330,247.897 238.000,249.675 238.000 C 250.402 238.000,253.188 236.466,256.337 234.331 C 259.314 232.313,262.819 230.042,264.125 229.284 L 266.500 227.905 266.500 223.793 C 266.500 209.020,278.652 198.216,289.859 203.025 M249.500 244.247 C 229.327 248.803,218.710 272.556,228.574 291.063 C 233.624 300.539,245.619 304.718,252.967 299.563 C 254.551 298.452,257.400 297.043,259.299 296.432 C 262.213 295.494,263.217 294.844,265.750 292.257 C 267.400 290.571,269.493 288.892,270.401 288.525 C 271.795 287.961,272.435 287.071,274.512 282.804 C 285.525 260.175,271.909 239.185,249.500 244.247 M336.750 260.465 C 301.640 266.198,296.371 312.714,329.773 322.060 C 351.503 328.139,373.655 311.839,373.682 289.750 C 373.704 271.150,356.220 257.286,336.750 260.465 M243.080 267.557 C 245.895 269.561,247.006 275.104,245.268 278.465 C 242.342 284.123,234.151 283.928,231.686 278.141 C 228.427 270.493,236.575 262.925,243.080 267.557 M330.551 287.635 C 334.032 289.961,335.075 295.310,332.863 299.494 C 329.748 305.383,320.347 304.855,317.688 298.641 C 314.378 290.904,323.614 283.001,330.551 287.635 M260.149 325.625 C 257.601 328.987,258.093 339.321,260.907 341.534 C 263.560 343.621,264.615 342.493,266.549 335.500 C 268.854 327.163,268.847 327.256,267.170 326.622 C 262.527 324.868,260.898 324.637,260.149 325.625 M273.344 329.375 C 270.564 334.230,269.388 344.080,271.507 344.752 C 275.157 345.911,282.772 336.630,281.898 332.089 C 281.628 330.684,273.983 328.259,273.344 329.375 " stroke="none" fill="#faf3e3" fill-rule="evenodd"></path><path id="path2" d="M258.392 303.461 C 250.022 308.769,251.793 316.792,261.811 318.947 C 264.319 319.486,270.844 321.322,276.311 323.026 C 289.101 327.013,289.246 327.044,292.147 326.422 C 301.268 324.466,301.936 311.739,293.150 307.307 C 291.011 306.228,290.384 306.277,286.539 307.821 C 278.575 311.021,270.756 309.921,265.930 304.921 C 262.645 301.519,261.733 301.342,258.392 303.461 M167.216 373.731 C 162.160 377.147,160.041 377.713,152.250 377.733 C 144.781 377.751,145.064 377.823,139.904 374.614 C 138.627 373.820,138.382 373.835,135.154 374.903 C 133.282 375.522,123.537 378.630,113.500 381.809 C 81.026 392.094,69.000 396.085,69.000 396.575 C 69.000 397.208,71.182 398.149,86.167 403.981 C 101.506 409.950,129.364 421.236,144.250 427.510 C 151.506 430.569,156.101 432.225,157.750 432.375 C 160.596 432.634,159.131 433.077,202.000 418.987 C 216.988 414.061,234.650 408.262,241.250 406.100 C 249.209 403.492,253.250 401.936,253.250 401.479 C 253.250 400.655,249.041 398.975,232.500 393.195 C 225.762 390.841,217.420 387.926,213.961 386.718 C 192.773 379.317,171.161 372.001,170.510 372.009 C 170.092 372.015,168.610 372.789,167.216 373.731 M64.287 403.125 C 64.160 403.744,63.809 412.913,63.509 423.500 C 63.208 434.087,62.637 452.762,62.239 465.000 C 61.039 501.864,61.049 505.418,62.351 507.516 C 63.291 509.031,70.878 514.000,72.252 514.000 C 72.434 514.000,78.134 516.895,84.917 520.434 C 107.467 532.197,146.828 552.000,147.661 552.000 C 148.755 552.000,148.850 551.359,149.482 539.750 C 149.782 534.250,150.237 527.163,150.494 524.000 C 150.751 520.837,151.315 513.075,151.749 506.750 C 152.182 500.425,153.432 482.565,154.527 467.062 C 156.738 435.763,156.861 437.970,152.833 436.789 C 151.412 436.373,146.762 434.543,142.500 432.724 C 123.645 424.676,66.713 402.000,65.363 402.000 C 64.890 402.000,64.417 402.494,64.287 403.125 M231.975 415.250 C 207.543 423.339,170.907 435.166,165.420 436.735 C 161.983 437.718,162.072 437.504,161.469 446.224 C 161.202 450.088,160.657 457.750,160.257 463.250 C 159.857 468.750,159.175 478.538,158.741 485.000 C 158.306 491.462,157.397 504.288,156.720 513.500 C 154.777 539.951,154.207 551.907,154.857 552.557 C 155.267 552.967,157.441 552.317,163.082 550.096 C 167.300 548.436,174.463 545.681,179.000 543.974 C 183.537 542.267,188.488 540.313,190.000 539.633 C 191.512 538.952,194.887 537.661,197.500 536.763 C 201.748 535.303,235.465 522.502,241.741 519.966 C 249.574 516.800,249.851 516.297,251.063 503.030 C 251.580 497.376,252.446 488.137,252.989 482.500 C 255.732 454.009,256.122 448.934,255.623 448.206 C 255.418 447.907,252.843 447.294,249.900 446.845 C 235.412 444.629,228.961 438.706,230.531 429.060 C 231.792 421.314,239.569 416.386,253.138 414.733 C 255.247 414.476,256.225 414.098,256.763 413.329 C 257.537 412.225,257.788 407.737,257.100 407.312 C 256.880 407.176,245.573 410.748,231.975 415.250 " stroke="none" fill="#f1bb4b" fill-rule="evenodd"></path><path id="path3" d="M281.573 202.045 C 273.235 203.655,266.500 213.372,266.500 223.793 L 266.500 227.905 264.125 229.284 C 262.819 230.042,259.314 232.313,256.337 234.331 C 253.188 236.466,250.402 238.000,249.675 238.000 C 247.897 238.000,241.158 240.330,238.500 241.864 C 223.545 250.494,216.062 267.463,219.749 284.388 L 220.650 288.526 216.107 297.888 C 209.810 310.861,203.180 328.205,199.721 340.750 C 198.574 344.912,197.450 345.524,174.816 354.321 L 167.882 357.016 164.212 356.258 C 153.750 354.097,143.898 357.450,139.220 364.764 L 137.573 367.337 129.912 369.884 C 122.617 372.309,82.601 385.111,68.704 389.466 C 61.697 391.662,60.639 392.363,59.207 395.757 C 58.063 398.468,58.033 399.165,55.455 484.750 C 54.615 512.654,54.234 511.781,71.000 520.401 C 91.550 530.966,114.805 542.960,129.250 550.445 C 151.518 561.983,150.989 561.893,164.750 556.512 C 169.150 554.792,178.150 551.296,184.750 548.745 C 191.350 546.193,198.830 543.255,201.372 542.216 C 206.658 540.055,207.243 540.168,205.059 542.926 C 200.740 548.379,200.429 552.606,204.044 556.724 C 213.916 567.968,238.266 552.860,250.944 527.625 C 252.800 523.932,252.561 523.967,258.822 526.468 C 278.885 534.483,302.163 537.534,330.719 535.892 L 333.187 535.750 337.484 544.250 C 346.744 562.569,352.992 568.737,362.250 568.705 C 372.590 568.669,376.968 561.891,374.820 549.250 C 373.315 540.394,371.950 532.834,371.276 529.617 C 370.420 525.537,370.434 525.508,373.821 524.038 C 380.325 521.216,389.571 513.820,395.389 506.787 C 410.886 488.051,414.592 466.797,409.018 428.636 C 405.653 405.600,407.533 393.401,419.913 357.962 C 429.332 330.995,431.546 312.195,427.712 291.727 C 427.442 290.285,427.581 290.127,430.339 288.730 C 440.287 283.693,447.643 270.658,445.988 261.000 C 443.267 245.121,425.991 240.826,409.760 251.993 C 406.997 253.894,407.344 254.001,401.867 249.574 C 376.150 228.787,344.252 217.104,312.324 216.779 L 300.898 216.663 299.028 212.706 C 295.322 204.866,288.511 200.706,281.573 202.045 M290.280 204.138 C 293.511 205.776,296.761 209.320,298.325 212.912 C 299.004 214.473,299.739 216.088,299.958 216.500 C 300.289 217.122,302.475 217.304,312.803 217.567 C 346.328 218.421,376.482 229.701,402.707 251.197 C 406.775 254.531,407.256 254.580,411.068 252.034 C 426.811 241.521,444.259 246.784,445.375 262.382 C 446.037 271.624,440.063 282.217,431.484 287.016 C 426.486 289.812,426.544 289.713,427.350 294.045 C 428.376 299.561,428.751 315.672,428.019 322.779 C 426.755 335.047,425.699 339.165,418.662 359.250 C 407.005 392.521,405.193 404.522,408.244 428.250 C 412.642 462.449,411.417 477.565,402.908 494.132 C 396.716 506.185,385.309 517.660,374.125 523.085 C 369.394 525.379,369.591 524.815,370.987 532.100 C 374.409 549.945,375.129 557.526,373.723 560.891 C 370.997 567.418,362.832 569.765,355.461 566.140 C 349.297 563.108,344.706 557.014,337.189 541.886 C 333.303 534.066,333.737 534.438,329.190 535.024 C 308.505 537.689,277.797 533.463,257.555 525.166 C 252.603 523.137,252.436 523.172,250.699 526.602 C 242.915 541.969,231.548 553.477,219.542 558.146 C 210.288 561.745,202.750 558.405,202.750 550.705 C 202.750 547.458,202.884 547.175,207.174 541.372 C 208.970 538.942,207.610 538.931,201.500 541.325 C 198.338 542.565,190.012 545.787,183.000 548.487 C 175.988 551.187,167.325 554.574,163.750 556.013 C 157.992 558.332,156.729 558.658,152.686 558.872 L 148.122 559.114 132.436 551.108 C 62.886 515.613,59.618 513.802,57.375 509.514 C 55.439 505.814,55.468 503.401,58.505 414.397 C 59.250 392.548,58.920 393.280,69.500 389.997 C 73.213 388.845,79.963 386.707,84.500 385.246 C 89.037 383.784,99.612 380.418,108.000 377.764 C 138.676 368.059,137.680 368.476,140.598 364.090 C 144.620 358.042,155.132 355.042,165.093 357.100 C 168.526 357.809,168.198 357.906,183.462 351.645 C 199.480 345.073,199.081 345.310,200.157 341.750 C 205.314 324.684,210.514 311.073,217.013 297.629 L 221.422 288.509 220.410 283.629 C 216.209 263.372,229.510 242.308,248.597 238.989 C 251.183 238.539,252.547 237.956,254.597 236.424 C 256.056 235.334,259.444 233.084,262.125 231.426 C 264.806 229.767,267.032 228.261,267.071 228.080 C 267.110 227.898,267.196 225.725,267.262 223.250 C 267.651 208.749,279.675 198.765,290.280 204.138 M282.317 208.500 C 277.388 210.030,272.500 216.887,272.500 222.271 C 272.500 224.824,273.182 224.831,280.335 222.359 C 283.863 221.140,288.406 219.742,290.430 219.254 L 294.109 218.366 293.825 216.613 C 292.989 211.465,286.806 207.106,282.317 208.500 M303.000 223.316 C 289.672 225.069,275.252 229.993,265.841 236.005 C 262.951 237.851,263.010 238.319,266.269 239.422 C 282.276 244.841,288.914 263.886,281.186 282.219 C 279.094 287.183,279.098 287.389,281.317 288.268 C 287.944 290.892,291.587 293.743,292.280 296.845 C 292.452 297.618,292.695 298.631,292.821 299.096 C 292.946 299.561,294.467 300.735,296.201 301.704 C 303.416 305.739,306.544 312.203,304.990 319.867 C 303.356 327.920,299.797 331.322,291.550 332.711 C 289.679 333.026,288.181 333.561,287.943 334.000 C 287.719 334.413,286.709 336.729,285.699 339.148 C 281.694 348.736,275.858 352.310,267.883 350.061 C 265.885 349.497,262.975 348.690,261.416 348.266 C 254.045 346.263,250.662 335.768,253.798 324.632 C 254.044 323.760,253.706 323.156,252.258 321.882 C 249.450 319.412,247.868 315.934,247.533 311.500 L 247.250 307.750 243.699 307.396 C 237.252 306.752,230.510 303.306,226.770 298.742 C 225.754 297.502,224.708 296.621,224.445 296.784 C 221.899 298.357,206.000 337.998,206.000 342.773 C 206.000 343.166,205.330 345.581,204.510 348.138 C 201.724 356.837,198.567 374.292,199.599 375.296 C 200.211 375.891,206.639 378.193,235.750 388.241 C 261.139 397.004,263.500 398.687,263.500 408.028 C 263.500 410.180,263.721 412.077,263.991 412.244 C 266.493 413.791,298.755 400.624,312.250 392.547 C 320.063 387.871,322.000 387.509,322.000 390.724 C 322.000 393.000,310.785 400.032,299.000 405.145 C 296.113 406.398,291.050 408.646,287.750 410.139 C 276.138 415.395,263.398 419.283,253.000 420.743 C 243.445 422.085,238.956 424.234,236.733 428.532 C 235.047 431.792,235.741 432.768,240.000 433.128 L 241.750 433.276 240.118 434.263 C 231.312 439.591,261.925 444.187,278.500 440.026 C 305.059 433.357,323.705 426.007,335.500 417.554 C 340.115 414.247,341.935 413.774,343.184 415.558 C 344.667 417.675,342.048 420.087,329.839 427.850 C 317.347 435.791,285.623 446.120,269.515 447.490 C 261.900 448.137,262.626 447.293,261.739 456.535 C 261.332 460.778,260.773 465.712,260.498 467.500 C 260.034 470.512,259.302 477.870,257.987 492.750 C 257.696 496.050,257.260 502.125,257.019 506.250 C 256.778 510.375,256.333 514.396,256.030 515.186 C 255.278 517.143,255.741 517.582,260.767 519.686 C 275.352 525.791,292.210 528.912,312.750 529.310 C 328.263 529.609,330.296 529.366,330.148 527.229 C 329.788 522.040,330.140 521.000,332.256 521.000 C 334.260 521.000,335.313 522.591,338.708 530.750 C 347.378 551.580,354.961 562.000,361.451 562.000 C 364.086 562.000,364.274 561.507,362.768 558.535 C 360.128 553.325,362.425 553.394,365.743 558.625 C 367.806 561.878,369.157 559.070,368.504 552.886 C 367.868 546.868,365.221 530.201,363.797 523.250 C 362.703 517.905,362.648 517.127,363.296 516.125 C 364.440 514.356,366.328 514.651,367.594 516.797 C 369.270 519.638,372.589 518.301,381.368 511.249 C 401.803 494.833,408.336 473.479,403.703 438.250 C 399.202 404.026,400.285 394.174,412.226 360.750 C 421.068 335.998,422.536 329.582,422.876 314.202 C 423.254 297.089,422.349 291.500,419.200 291.500 C 416.513 291.500,415.500 290.747,415.500 288.750 C 415.500 286.688,415.853 286.469,421.437 285.068 C 437.652 280.998,445.940 263.790,436.006 254.815 C 428.805 248.309,412.774 254.385,405.506 266.375 C 401.905 272.314,398.036 267.843,401.264 261.472 L 402.528 258.978 401.139 257.678 C 384.396 242.002,349.672 226.225,327.000 223.993 C 321.025 223.404,305.628 222.970,303.000 223.316 M247.550 243.994 C 228.229 249.210,218.270 272.893,227.783 290.997 C 232.683 300.322,246.192 305.846,252.250 301.002 C 254.891 298.890,256.578 298.035,260.566 296.787 C 263.375 295.909,264.144 295.406,265.587 293.500 C 266.524 292.262,268.511 290.517,270.003 289.622 C 277.127 285.346,281.528 268.392,278.067 258.557 C 273.693 246.126,261.393 240.257,247.550 243.994 M264.256 244.994 C 277.941 249.627,282.492 266.406,274.512 282.804 C 272.435 287.071,271.795 287.961,270.401 288.525 C 269.493 288.892,267.400 290.571,265.750 292.257 C 263.217 294.844,262.213 295.494,259.299 296.432 C 257.400 297.043,254.551 298.452,252.967 299.563 C 243.423 306.258,229.704 298.436,225.948 284.157 C 219.662 260.264,241.978 237.451,264.256 244.994 M352.492 255.280 C 375.339 260.659,386.369 286.247,375.091 307.704 C 356.941 342.234,303.107 333.081,301.622 295.212 C 300.582 268.694,325.707 248.972,352.492 255.280 M335.250 260.039 C 313.247 263.756,300.132 288.188,309.824 307.405 C 320.043 327.667,352.117 329.754,366.755 311.109 C 386.167 286.384,366.643 254.736,335.250 260.039 M352.868 261.738 C 373.764 268.339,380.361 293.105,365.964 310.898 C 350.417 330.113,317.321 326.096,309.130 304.000 C 299.750 278.695,326.062 253.270,352.868 261.738 M428.617 264.692 C 429.574 266.145,429.046 266.637,417.000 275.507 C 411.970 279.210,410.339 279.957,409.048 279.148 C 406.512 277.559,408.456 275.104,416.910 269.221 C 424.931 263.639,427.316 262.716,428.617 264.692 M236.750 266.338 C 230.829 267.902,229.008 276.648,233.702 280.977 C 235.824 282.935,240.738 283.077,242.918 281.242 C 249.619 275.603,244.894 264.185,236.750 266.338 M242.290 267.943 C 248.097 271.484,245.298 282.005,238.551 281.998 C 231.456 281.991,229.028 271.713,235.229 267.932 C 237.182 266.740,240.326 266.745,242.290 267.943 M320.920 287.732 C 313.988 292.442,316.659 302.973,324.892 303.389 C 330.656 303.681,334.001 300.525,333.999 294.796 C 333.997 287.855,326.610 283.865,320.920 287.732 M329.909 288.015 C 333.324 290.097,334.480 296.227,332.076 299.500 C 327.281 306.028,318.007 303.057,318.002 294.991 C 317.998 288.720,324.662 284.816,329.909 288.015 M260.127 324.320 C 257.872 325.268,256.938 335.491,258.718 339.750 C 260.029 342.887,263.773 344.118,265.186 341.875 C 266.486 339.811,269.566 327.433,268.961 326.703 C 268.110 325.677,261.281 323.835,260.127 324.320 M264.050 325.543 C 269.330 327.229,269.095 326.292,266.549 335.500 C 264.615 342.493,263.560 343.621,260.907 341.534 C 258.658 339.765,257.734 333.048,259.088 328.308 C 260.082 324.826,260.710 324.476,264.050 325.543 M272.738 328.625 C 268.339 340.563,268.281 345.503,272.539 345.498 C 277.075 345.493,285.089 333.875,282.407 331.193 C 280.567 329.353,273.192 327.394,272.738 328.625 M278.743 330.155 C 282.408 331.496,282.503 331.862,280.455 336.782 C 277.485 343.915,272.067 347.362,269.973 343.449 C 269.521 342.605,272.221 331.337,273.344 329.375 C 273.710 328.737,275.622 329.013,278.743 330.155 M188.500 356.026 C 168.726 363.910,167.953 364.108,162.434 362.694 C 153.157 360.317,139.802 367.841,145.618 372.167 C 149.503 375.057,159.733 372.520,165.612 367.208 C 168.146 364.919,168.896 365.089,189.993 372.727 C 192.578 373.663,193.500 373.058,193.500 370.425 C 193.500 369.664,194.175 365.723,195.000 361.668 C 195.825 357.612,196.500 354.115,196.500 353.897 C 196.500 353.089,194.597 353.596,188.500 356.026 M237.324 528.516 C 234.614 529.573,231.999 530.798,231.512 531.239 C 230.400 532.246,224.071 534.968,222.800 534.986 C 221.729 535.002,211.000 545.332,211.000 546.348 C 211.000 546.779,211.550 546.960,212.606 546.877 C 215.302 546.664,215.026 548.215,212.036 550.073 C 205.217 554.312,211.688 555.216,219.736 551.149 C 227.826 547.061,243.000 531.432,243.000 527.187 C 243.000 526.292,243.063 526.278,237.324 528.516 " stroke="none" fill="#7ec5d1" fill-rule="evenodd"></path></g></svg>